<svg xmlns="http://www.w3.org/2000/svg" width="41.756" height="41.177" viewBox="0 0 41.756 41.177">
  <g id="Group_1482" data-name="Group 1482" transform="translate(-288 -1871)">
    <ellipse id="Ellipse_1" data-name="Ellipse 1" cx="20.878" cy="20.469" rx="20.878" ry="20.469" transform="translate(288 1871.24)" fill="#fff"/>
    <g id="etherscan-seeklogo.com" transform="translate(288.125 1871)">
      <path id="Path_138" data-name="Path 138" d="M13.529,25.573a1.75,1.75,0,0,1,1.752-1.752h.008l2.914.008a1.75,1.75,0,0,1,1.752,1.751V36.6c.328-.1.749-.2,1.213-.312a1.461,1.461,0,0,0,1.128-1.423V21.211a1.75,1.75,0,0,1,1.752-1.752h2.922a1.75,1.75,0,0,1,1.751,1.752V33.884s.733-.295,1.44-.6a1.463,1.463,0,0,0,.893-1.347V16.84A1.75,1.75,0,0,1,32.8,15.089h2.914a1.75,1.75,0,0,1,1.751,1.752V29.286A34.4,34.4,0,0,0,44.593,22.6a2.946,2.946,0,0,0,.446-2.745A20.609,20.609,0,1,0,7.694,36.873a2.6,2.6,0,0,0,2.484,1.288c.556-.051,1.238-.118,2.055-.211A1.458,1.458,0,0,0,13.521,36.5l.008-10.93" transform="translate(-4.953 -6.003)" fill="#21325b"/>
      <path id="Path_139" data-name="Path 139" d="M106.1,251.479a20.6,20.6,0,0,0,32.731-16.665c0-.472-.025-.943-.051-1.415-7.528,11.233-21.439,16.488-32.681,18.079" transform="translate(-97.583 -214.252)" fill="#979695"/>
    </g>
  </g>
</svg>
