<svg xmlns="http://www.w3.org/2000/svg" width="169.245" height="26.857" viewBox="0 0 169.245 26.857">
  <g id="galaxis_text_logo" data-name="galaxis text logo" transform="translate(-245.426 -321.77)">
    <g id="Group_1648" data-name="Group 1648" transform="translate(245.426 321.769)">
      <path id="Path_368" data-name="Path 368" d="M990.873,375.584a7.61,7.61,0,0,0-3.034-2.1,43.451,43.451,0,0,0-4.685-1.411q-2.435-.6-3.913-1.118a6.492,6.492,0,0,1-2.422-1.464,3.453,3.453,0,0,1-.958-2.555,4.181,4.181,0,0,1,1.757-3.46,8.608,8.608,0,0,1,5.217-1.331,13.008,13.008,0,0,1,3.7.559,12.626,12.626,0,0,1,3.54,1.65l.932-2.236a12.794,12.794,0,0,0-3.753-1.7,15.535,15.535,0,0,0-4.419-.612,13.115,13.115,0,0,0-5.43.985,7.368,7.368,0,0,0-3.247,2.609,6.714,6.714,0,0,0-1.065,3.647,5.775,5.775,0,0,0,1.251,3.886,7.779,7.779,0,0,0,3.034,2.129,39.1,39.1,0,0,0,4.738,1.437A36.334,36.334,0,0,1,986,375.611a6.691,6.691,0,0,1,2.342,1.437,3.391,3.391,0,0,1,.958,2.529,4,4,0,0,1-1.783,3.38,8.869,8.869,0,0,1-5.324,1.3,13.977,13.977,0,0,1-4.9-.878,10.483,10.483,0,0,1-3.806-2.316l-1.091,2.156a10.149,10.149,0,0,0,4.152,2.475,16.627,16.627,0,0,0,5.643.932,13.722,13.722,0,0,0,5.457-.958,7.211,7.211,0,0,0,3.3-2.609,6.5,6.5,0,0,0,1.065-3.647,5.256,5.256,0,0,0-1.145-3.833" transform="translate(-822.782 -359.773)" fill="#010202"/>
      <path id="Path_369" data-name="Path 369" d="M523.958,360.6,511.9,386.978h2.955l7.586-2.822h-6.335l9.263-20.655,10.514,23.477h2.9L526.726,360.6Z" transform="translate(-484.856 -360.36)" fill="#010202"/>
      <path id="Path_370" data-name="Path 370" d="M836.2,428.586h3.221l8.225-11.286-4.977,2.529Z" transform="translate(-722.835 -401.968)" fill="#010202"/>
      <path id="Path_371" data-name="Path 371" d="M852.681,371.513l8.012-10.913h-3.008l-7.932,10.78-7.932-10.78H838.6l9.369,12.776Z" transform="translate(-724.596 -360.36)" fill="#010202"/>
      <path id="Path_372" data-name="Path 372" d="M880.5,413.371l8.411,11.472h3.247L882.816,412.2Z" transform="translate(-755.344 -398.226)" fill="#010202"/>
      <path id="Path_373" data-name="Path 373" d="M941.4,366.323l2.795-1.065V360.6H941.4Z" transform="translate(-800.033 -360.36)" fill="#010202"/>
      <path id="Path_374" data-name="Path 374" d="M941.4,401.434h2.795V380.3l-2.795,1.437Z" transform="translate(-800.033 -374.817)" fill="#010202"/>
      <path id="Path_375" data-name="Path 375" d="M730.958,360.6,718.9,386.978h2.955l7.586-2.822h-6.335l9.263-20.655,10.514,23.477h2.9L733.726,360.6Z" transform="translate(-636.758 -360.36)" fill="#010202"/>
      <path id="Path_376" data-name="Path 376" d="M418.578,363.613a11.97,11.97,0,0,1,5.776-1.411,10.92,10.92,0,0,1,7.959,3.088l1.73-1.783a11.02,11.02,0,0,0-4.259-2.848,15.5,15.5,0,0,0-5.536-.958,14.763,14.763,0,0,0-7.16,1.73,12.739,12.739,0,0,0-4.978,4.818,13.933,13.933,0,0,0,0,13.735,12.673,12.673,0,0,0,4.978,4.791,14.659,14.659,0,0,0,7.133,1.73,16.185,16.185,0,0,0,5.324-.878,13.229,13.229,0,0,0,4.365-2.475v-7.8l-2.688,1.2v5.43A11.478,11.478,0,0,1,424.328,384a11.7,11.7,0,0,1-5.776-1.437,10.515,10.515,0,0,1-4.019-3.913,10.688,10.688,0,0,1-1.464-5.59,10.823,10.823,0,0,1,1.464-5.59,10.455,10.455,0,0,1,4.046-3.86" transform="translate(-410.3 -359.7)" fill="#010202"/>
      <path id="Path_377" data-name="Path 377" d="M643.327,360.6H643.3l.027.027Z" transform="translate(-581.281 -360.36)" fill="#010202"/>
      <path id="Path_378" data-name="Path 378" d="M635.695,361l-2.795,1.251v25.021h17.568v-2.422H635.695Z" transform="translate(-573.649 -360.654)" fill="#010202"/>
    </g>
  </g>
</svg>
