<svg clip-rule="evenodd" fill-rule="evenodd" stroke-linejoin="round" stroke-miterlimit="2" viewBox="0 0 42 42" xmlns="http://www.w3.org/2000/svg"><g fill-rule="nonzero"><path d="m8.576 19.57v-.001c0-.96.79-1.75 1.75-1.75h.009l2.914.008h.001c.96 0 1.75.79 1.75 1.75v.001 11.019c.328-.1.749-.2 1.213-.312.659-.154 1.128-.747 1.128-1.423v-13.654-.001c0-.96.79-1.75 1.75-1.75h2.924c.96 0 1.75.79 1.75 1.75v.001 12.673s.733-.295 1.44-.6c.54-.228.893-.761.893-1.347v-15.097-.001c0-.96.789-1.749 1.749-1.75h2.915c.96 0 1.75.79 1.75 1.75v.001 12.446c2.682-1.878 5.082-4.129 7.128-6.686.598-.782.765-1.814.446-2.745-2.874-8.267-10.714-13.842-19.466-13.842-11.306 0-20.609 9.303-20.609 20.609 0 3.596.941 7.131 2.73 10.251.506.875 1.478 1.379 2.484 1.288.556-.051 1.238-.118 2.055-.211.732-.085 1.289-.713 1.288-1.45l.008-10.93" fill="#21325b"/><path d="m8.517 37.227c3.523 2.567 7.772 3.951 12.131 3.951 11.301 0 20.6-9.299 20.6-20.6 0-.006 0-.011 0-.016 0-.472-.025-.943-.051-1.415-7.528 11.233-21.439 16.488-32.681 18.079" fill="#979695"/><path d="m41.223 20.589c0 11.295-9.294 20.589-20.589 20.589s-20.589-9.294-20.589-20.589 9.294-20.589 20.589-20.589h.001c11.294.002 20.586 9.295 20.588 20.589z" fill="#2081e2"/><g fill="#fff"><path d="m10.218 21.288.084-.126 5.356-8.362c.084-.126.244-.126.328.042.909 2.021 1.65 4.488 1.314 6.054-.243.817-.603 1.594-1.069 2.307-.044.121-.112.233-.2.328-.041.052-.102.083-.168.084h-5.516c-.094-.029-.159-.117-.159-.215 0-.039.01-.078.03-.112z"/><path d="m34.057 22.853v1.314c0 .084-.042.126-.126.168-.928.354-1.762.919-2.434 1.65-1.524 2.1-2.678 5.1-5.229 5.1h-10.736c-3.778-.011-6.88-3.122-6.88-6.9 0-.007 0-.015 0-.022v-.126c.006-.09.078-.162.168-.168h6.054c.107.008.192.093.2.2-.033.395.036.793.2 1.154.359.714 1.096 1.163 1.895 1.154h2.964v-2.307h-2.922c-.003 0-.006 0-.01 0-.102 0-.187-.084-.187-.187 0-.035.01-.069.029-.099.052-.048.095-.105.126-.168.286-.413.657-.985 1.069-1.684.289-.472.537-.968.741-1.482.048-.092.09-.188.126-.286.042-.168.126-.328.168-.455s.084-.244.126-.371c.087-.447.129-.901.126-1.356.006-.192-.008-.384-.042-.573 0-.2-.042-.413-.042-.615-.007-.182-.036-.363-.084-.539-.036-.279-.092-.554-.168-.825l-.042-.084c-.037-.185-.093-.366-.168-.539-.168-.573-.37-1.154-.573-1.65-.084-.2-.168-.413-.244-.615-.126-.286-.244-.573-.37-.825-.042-.126-.126-.2-.168-.328s-.126-.244-.168-.371c-.042-.084-.084-.168-.126-.244l-.37-.657c-.042-.084.042-.2.126-.168l2.265.615.286.084.328.084.126.042v-1.339c-.005-.643.511-1.18 1.154-1.2.307-.002.603.115.825.328.214.221.332.518.328.825v1.979l.244.084h.001c.023 0 .041.018.041.041v.001c.074.075.156.142.244.2.086.092.182.174.286.244.2.168.5.413.783.657.084.084.168.126.2.2.421.378.822.779 1.2 1.2.126.126.2.244.328.371s.2.286.328.413c.126.168.286.371.413.539.063.091.119.186.168.286.168.244.286.5.455.741.042.126.126.244.168.371.172.319.283.667.328 1.027.029.063.044.131.042.2.037.105.052.217.042.328.028.357.014.716-.042 1.069-.042.168-.084.286-.126.455-.044.156-.1.308-.168.455-.137.297-.289.586-.455.867-.042.084-.126.2-.2.328-.084.097-.152.208-.2.328-.084.126-.2.244-.286.371-.085.132-.18.256-.286.371-.126.168-.286.328-.413.5-.191.191-.382.382-.573.573-.113.121-.237.231-.371.328l-.244.2c-.034.032-.08.048-.126.042h-1.81v2.307h2.265c.498.004.98-.174 1.356-.5.126-.126.7-.615 1.4-1.356.042-.042.042-.042.084-.042l6.257-1.81c.242-.105.326-.029.326.097z"/></g></g></svg>