<?xml version="1.0" encoding="utf-8"?>
<!-- Generator: Adobe Illustrator 27.0.0, SVG Export Plug-In . SVG Version: 6.00 Build 0)  -->
<svg version="1.1" id="Layer_1" xmlns="http://www.w3.org/2000/svg" xmlns:xlink="http://www.w3.org/1999/xlink" x="0px" y="0px"
	 viewBox="725 290 450 500" style="enable-background:new 0 0 1920 1080;" xml:space="preserve">
<g>
	<path d="M962.25,348c2.6,2.73,5.71,5.14,7.73,8.25c14.24,21.87,28.26,43.88,42.34,65.86c0.67,1.05,1.34,2.12,1.82,3.26
		c1.13,2.71,0.18,4.96-2.05,6.57c-2.31,1.66-4.77,1.42-6.87-0.44c-1-0.89-1.72-2.13-2.46-3.28c-7.29-11.33-14.55-22.67-22.42-33.8
		c0.3,1.07,0.56,2.16,0.91,3.21c5.02,15.03,10.06,30.05,15.09,45.07c0.32,0.95,0.72,1.87,0.96,2.84c0.82,3.3-0.67,6.28-3.6,7.31
		c-2.89,1.01-6.06-0.41-7.23-3.66c-2.24-6.22-4.24-12.52-6.34-18.79c-6.46-19.27-12.92-38.55-19.39-57.82
		c-0.38-1.12-0.84-2.21-1.64-4.29c-16.13,48.19-31.94,95.42-47.85,142.93c32.03,0,63.71,0,95.75,0c-0.52-1.77-0.98-3.51-1.55-5.21
		c-3.7-11.13-7.47-22.23-11.12-33.37c-1.1-3.38,0.29-6.34,3.14-7.43c3.1-1.18,6.13,0.25,7.56,3.61c0.34,0.8,0.57,1.65,0.85,2.48
		c4.24,12.66,8.53,25.3,12.67,37.98c0.79,2.43,1.98,3.92,4.48,4.9c14.75,5.79,29.41,11.79,44.1,17.72c0.55,0.22,1.12,0.38,2.35,0.8
		c-0.9-1.55-1.44-2.57-2.06-3.54c-7.47-11.68-14.96-23.34-22.44-35.02c-0.54-0.84-1.12-1.66-1.6-2.53
		c-1.74-3.15-1.16-6.24,1.46-7.93c2.63-1.7,5.83-1.05,7.92,1.64c0.46,0.59,0.84,1.24,1.24,1.87c9.98,15.56,19.89,31.16,29.97,46.64
		c3.2,4.91,3.1,9.31-0.08,14.21c-38.41,59.19-76.71,118.44-115.15,177.61c-1.61,2.48-4.33,4.25-6.54,6.35c-2,0-4,0-6,0
		c-2.61-2.73-5.73-5.12-7.76-8.23c-25.64-39.34-51.12-78.78-76.67-118.17c-1.73-2.67-2.97-5.28-0.89-8.27
		c2.26-3.24,5.86-3.6,8.65-0.81c0.96,0.96,1.67,2.17,2.41,3.33c19.8,30.62,39.59,61.26,59.39,91.88c0.46,0.71,0.97,1.37,2.07,1.81
		c-1.89-7.27-3.77-14.55-5.68-21.81c-3.81-14.46-7.66-28.91-11.45-43.38c-1.53-5.82,1.17-9.75,6.13-9.04
		c3.26,0.47,4.42,2.84,5.16,5.66c5.24,20.03,10.51,40.05,15.77,60.07c1.79,6.82,3.62,13.63,6.31,20.47
		c15.96-60.67,31.91-121.34,47.96-182.35c-32.38,0-64.29,0-96.75,0c1.77,6.86,3.5,13.56,5.23,20.27c0.34,1.33,0.81,2.63,1.08,3.97
		c0.75,3.72-1.03,6.8-4.31,7.61c-3.04,0.75-6.02-1.09-7.01-4.65c-2.07-7.44-3.99-14.93-5.99-22.4c-0.22-0.82-0.54-1.6-0.94-2.74
		c-17.23,7.01-34.25,13.94-51.64,21.02c6.12,9.47,11.94,18.47,17.75,27.47c0.81,1.26,1.71,2.48,2.38,3.81
		c1.47,2.91,0.7,6.28-1.63,7.66c-2.74,1.62-6.16,1.14-8.05-1.5c-2.61-3.65-4.96-7.5-7.41-11.27c-5.37-8.27-10.68-16.59-16.12-24.82
		c-2.95-4.46-3.03-8.7-0.11-13.25c38.66-60.21,77.26-120.46,115.99-180.63c1.47-2.28,4.06-3.83,6.12-5.72
		C958.25,348,960.25,348,962.25,348z M974.74,693.89c0.33,0.07,0.65,0.15,0.98,0.22c31.87-49.22,63.74-98.43,95.85-148.01
		c-17.58-7.1-34.83-14.07-52.4-21.17C1004.28,581.58,989.51,637.73,974.74,693.89z M849.65,531.6c0.14,0.2,0.29,0.4,0.43,0.6
		c15.02-6.02,30.02-12.08,45.07-18c2.42-0.95,3.77-2.32,4.61-4.82c10.69-32.19,21.48-64.35,32.23-96.53
		c1.86-5.57,3.61-11.17,5.42-16.76c-0.23-0.1-0.46-0.2-0.68-0.29C907.7,441.07,878.67,486.33,849.65,531.6z"/>
	<path d="M900.41,585.61c1.7-2.43,3.15-5.09,5.15-7.25c3.53-3.82,7.62-7.12,11.04-11.02c4.73-5.4,10.89-5.48,15.69-0.12
		c3.47,3.88,7.21,7.57,11.13,11c5.65,4.95,5.33,11.43-0.64,16.12c-3.77,2.97-7.26,6.41-10.33,10.1c-4.78,5.74-11.44,5.68-16.13-0.09
		c-2.94-3.61-6.54-6.76-10.16-9.73C903.4,592.34,901.36,589.96,900.41,585.61z M932,586.23c-2.36-2.6-5.14-5.65-7.56-8.3
		c-2.66,2.71-5.58,5.68-8.46,8.6c2.62,2.48,5.57,5.26,8.51,8.04C927.21,591.55,929.93,588.53,932,586.23z"/>
	<path d="M887.83,382.18c-0.97,1.22-1.93,3.57-3.51,4.11c-1.77,0.61-4.91,0.36-6.04-0.84c-4.25-4.53-8.1-9.48-11.73-14.54
		c-1.72-2.4-0.94-5.15,1.43-6.98c2.36-1.82,5.21-1.87,7.15,0.32c4.11,4.67,7.87,9.67,11.69,14.59
		C887.3,379.49,887.33,380.49,887.83,382.18z"/>
	<path d="M888.17,697.92c-0.99,2.02-1.45,3.46-2.31,4.6c-3.1,4.06-6.3,8.06-9.55,12.01c-2.48,3.02-6,3.56-8.51,1.45
		c-2.49-2.1-2.7-5.29-0.35-8.33c3.28-4.24,6.44-8.63,10.16-12.46c1.34-1.38,4.34-2.14,6.23-1.7
		C885.51,693.87,886.7,696.32,888.17,697.92z"/>
	<path d="M823.95,653.84c-2.2-1.94-4.67-3.09-5.09-4.76c-0.48-1.87,0.2-5.12,1.59-6.17c4.04-3.06,8.62-5.44,13.12-7.86
		c2.4-1.29,5.04-0.55,6.23,1.68c0.91,1.71,1.42,5.32,0.51,6.04C835.3,646.69,829.79,649.99,823.95,653.84z"/>
	<path d="M836.48,445.93c-1.91-0.66-2.92-0.85-3.76-1.33c-3.9-2.21-7.81-4.42-11.61-6.81c-2.98-1.88-3.71-5.05-2.06-7.75
		c1.58-2.58,4.6-3.54,7.5-1.97c4.17,2.24,8.43,4.44,12.15,7.31c1.45,1.12,2.39,4.23,1.97,6.07
		C840.24,443.26,837.8,444.6,836.48,445.93z"/>
	<path d="M799.67,534.24c2.03,0.1,4.17,0.03,6.25,0.36c3.02,0.49,4.58,2.61,4.53,5.53c-0.05,2.74-1.57,5-4.42,5.2
		c-4.33,0.31-8.71,0.31-13.04-0.02c-2.85-0.22-4.32-2.49-4.33-5.26c-0.01-2.95,1.56-5.02,4.59-5.47
		C795.32,534.26,797.46,534.34,799.67,534.24z"/>
	<path d="M1056.12,452.77c-0.7,3.94-2.48,6.26-4.95,8.46c-3.87,3.45-7.71,7-11.1,10.9c-4.36,5-10.79,4.97-15.14-0.04
		c-3.3-3.81-6.99-7.39-10.94-10.52c-5.7-4.52-5.85-11.19-0.32-15.83c4.07-3.41,7.89-7.19,11.4-11.18c4.32-4.9,10.44-5.06,14.89-0.22
		c3.7,4.02,7.85,7.61,11.55,11.63C1053.35,447.96,1054.61,450.49,1056.12,452.77z M1024.05,453.86c2.65,2.49,5.61,5.27,8.15,7.66
		c3-2.98,5.93-5.91,8.06-8.03c-2.5-2.72-5.25-5.7-7.85-8.53C1029.78,447.76,1026.98,450.74,1024.05,453.86z"/>
	<path d="M1054.54,712.58c-1.07,1.22-2.15,3.55-3.77,4.02c-1.8,0.53-4.85,0.09-6.04-1.17c-4.09-4.34-7.73-9.14-11.28-13.95
		c-1.75-2.38-1.33-5.07,0.88-7.1c2.22-2.04,5.19-2.35,7.11-0.22c4.34,4.8,8.21,10.02,12.18,15.14
		C1054.12,709.93,1054.11,710.95,1054.54,712.58z"/>
	<path d="M1054.83,367.78c-0.92,1.89-1.37,3.36-2.24,4.5c-3.18,4.16-6.45,8.26-9.8,12.29c-2.39,2.89-5.71,3.32-8.23,1.29
		c-2.5-2.02-2.77-5.32-0.47-8.31c3.27-4.25,6.63-8.43,10.01-12.6c1.79-2.2,4.32-2.94,6.69-1.64
		C1052.44,364.21,1053.48,366.21,1054.83,367.78z"/>
	<path d="M1083.61,634.04c1.91,0.69,2.91,0.9,3.75,1.38c3.79,2.16,7.58,4.32,11.28,6.63c3.11,1.94,3.97,4.89,2.46,7.65
		c-1.59,2.91-4.8,3.82-8.07,2.02c-3.93-2.16-7.81-4.43-11.59-6.83c-2.34-1.48-3.54-3.92-2.2-6.43
		C1080.23,636.62,1082.26,635.35,1083.61,634.04z"/>
	<path d="M1101.78,434.09c-0.62,0.78-1.61,2.72-3.18,3.8c-3.48,2.4-7.21,4.45-10.92,6.5c-3.27,1.81-6.52,1.02-8.13-1.77
		c-1.63-2.82-0.71-5.96,2.53-7.93c3.72-2.28,7.44-4.57,11.31-6.57C1097.38,426.04,1101.68,428.56,1101.78,434.09z"/>
	<path d="M1120.45,545.51c-1.99,0-4,0.18-5.97-0.04c-3.2-0.36-4.96-2.47-4.93-5.57c0.03-2.92,1.72-5.12,4.75-5.32
		c4.09-0.27,8.22-0.27,12.31,0c3.03,0.2,4.69,2.37,4.72,5.33c0.03,3.14-1.71,5.2-4.91,5.56
		C1124.45,545.69,1122.44,545.51,1120.45,545.51z"/>
</g>
</svg>
